<svg width="38" height="47" viewBox="0 0 38 47" fill="none" xmlns="http://www.w3.org/2000/svg">
<path d="M18.7585 44.6056C9.65016 39.5276 9.10388 39.3568 0 34.2765L18.0606 23.8643C27.1489 28.9692 27.6662 29.167 36.7522 34.272C30.7543 37.7188 24.7564 41.1633 18.7585 44.6056Z" fill="#F9F9F9"/>
<path d="M18.7597 44.5639L0.243408 34.1746V36.0834L4.84324 38.6962L18.7597 46.4998L36.7523 36.104V34.1817L18.7597 44.5639Z" fill="#EDEFF1"/>
<path d="M18.7779 44.5818L18.74 44.5616V46.4773L18.7779 46.4998L37.7257 35.6593V33.748L18.7779 44.5818Z" fill="#CFD8DB"/>
<rect x="9.71094" y="2.60742" width="3.51245" height="3.51245" fill="#CFD8DB"/>
<path d="M9.59375 22.2772L19.0774 16.8448V5.88574L9.59375 11.2715V22.2772Z" fill="#CFD8DB"/>
<path d="M17.9066 20.6202L17.8741 9.73725L14.7671 8.46143L13.4575 9.2042V20.2147C13.4575 20.2147 13.7605 20.1815 13.8906 20.6097C14.0618 21.1952 15.0324 22.6859 17.1568 21.7317C17.5403 21.5569 17.946 21.1008 17.8946 20.6184L17.9066 20.6202Z" fill="#D7E0E3"/>
<path d="M0.344482 6.12001V16.9954L9.59392 22.2773V11.2716L0.344482 6.00293V6.12001Z" fill="#E6E9ED"/>
<path d="M17.3947 8.70834C16.4006 8.15489 15.5792 8.58381 15.1502 8.1203L19.0775 5.88575L14.9392 3.47998C14.7988 3.4463 14.6505 3.47427 14.5323 3.55672C14.4141 3.63918 14.3374 3.76814 14.3219 3.91063C14.1928 4.52634 13.1012 6.05005 10.855 5.06768C10.215 4.7875 9.5122 3.77573 10.7451 3.08737C11.8159 2.48896 12.7018 2.96458 13.1552 2.44399L9.81564 0.5L0.344482 5.99471L9.6116 11.2715L13.4831 9.06981C13.6128 9.04373 13.7477 9.07346 13.8541 9.15161C13.9605 9.22976 14.0284 9.349 14.0411 9.47971C14.1632 10.0574 15.1782 11.486 17.29 10.5641C17.8899 10.3099 18.5474 9.35345 17.3947 8.70834Z" fill="#F7F7F7"/>
<g opacity="0.6">
<path d="M8.40616 20.4311C8.32706 20.4311 8.26294 20.367 8.26294 20.2879V17.0981C8.26294 17.019 8.32706 16.9548 8.40616 16.9548C8.48526 16.9548 8.54938 17.019 8.54938 17.0981V20.2879C8.54938 20.367 8.48526 20.4311 8.40616 20.4311Z" fill="url(#paint0_linear_179_1057)"/>
<path d="M1.46329 11.3879C1.38419 11.3879 1.32007 11.3238 1.32007 11.2447V8.05339C1.32007 7.97428 1.38419 7.91016 1.46329 7.91016C1.54238 7.91016 1.60651 7.97428 1.60651 8.05339V11.2447C1.60651 11.3238 1.54238 11.3879 1.46329 11.3879Z" fill="url(#paint1_linear_179_1057)"/>
<path d="M2.49454 12.4191C2.41544 12.4191 2.35132 12.355 2.35132 12.2759V9.08464C2.35132 9.00553 2.41544 8.94141 2.49454 8.94141C2.57364 8.94141 2.63776 9.00553 2.63776 9.08464V12.2759C2.63776 12.355 2.57364 12.4191 2.49454 12.4191Z" fill="url(#paint2_linear_179_1057)"/>
<path d="M3.43546 13.3603C3.35636 13.3603 3.29224 13.2962 3.29224 13.2171V10.0258C3.29224 9.9467 3.35636 9.88257 3.43546 9.88257C3.51455 9.88257 3.57867 9.9467 3.57867 10.0258V13.2171C3.57867 13.2962 3.51455 13.3603 3.43546 13.3603Z" fill="url(#paint3_linear_179_1057)"/>
<path d="M6.4313 18.4587C6.35221 18.4587 6.28809 18.3946 6.28809 18.3155V15.1242C6.28809 15.0451 6.35221 14.981 6.4313 14.981C6.5104 14.981 6.57452 15.0451 6.57452 15.1242V18.3155C6.57452 18.3946 6.5104 18.4587 6.4313 18.4587Z" fill="url(#paint4_linear_179_1057)"/>
<path d="M7.46524 19.49C7.38614 19.49 7.32202 19.4258 7.32202 19.3467V16.1569C7.32202 16.0778 7.38614 16.0137 7.46524 16.0137C7.54434 16.0137 7.60846 16.0778 7.60846 16.1569V19.3467C7.60846 19.4258 7.54434 19.49 7.46524 19.49Z" fill="url(#paint5_linear_179_1057)"/>
<path opacity="0.6" d="M4.58008 15.268V15.311C4.57999 15.392 4.62313 15.4668 4.69322 15.5072C4.76348 15.5475 4.84981 15.5474 4.91997 15.507C4.99014 15.4666 5.03358 15.392 5.03408 15.311V15.268C5.03438 15.1867 4.99125 15.1113 4.92094 15.0704C4.85046 15.03 4.76383 15.0303 4.69357 15.071C4.62331 15.1117 4.58007 15.1868 4.58008 15.268Z" fill="url(#paint6_linear_179_1057)"/>
<path opacity="0.6" d="M4.58008 14.1709V14.2138C4.5797 14.2949 4.62292 14.3698 4.69322 14.4101C4.76336 14.4513 4.8502 14.4516 4.92069 14.4111C4.99118 14.3705 5.03447 14.2952 5.03408 14.2138V14.1709C5.03409 14.0896 4.99104 14.0144 4.92094 13.9732C4.85046 13.9329 4.76383 13.9331 4.69357 13.9738C4.62332 14.0146 4.58007 14.0897 4.58008 14.1709Z" fill="url(#paint7_linear_179_1057)"/>
<path opacity="0.6" d="M4.58008 13.1208V13.1638C4.5797 13.2448 4.62292 13.3198 4.69322 13.36C4.76336 13.4012 4.8502 13.4016 4.92069 13.361C4.99118 13.3204 5.03447 13.2451 5.03408 13.1638V13.1208C5.03409 13.0395 4.99104 12.9643 4.92094 12.9232C4.85046 12.8828 4.76383 12.883 4.69357 12.9238C4.62332 12.9645 4.58007 13.0396 4.58008 13.1208Z" fill="url(#paint8_linear_179_1057)"/>
</g>
<path opacity="0.050062" fill-rule="evenodd" clip-rule="evenodd" d="M0.298584 34.157L9.586 39.4524L13.4746 37.1293C13.4746 37.1293 14.2321 38.7798 15.9996 38.7798C17.7672 38.7798 18.1712 37.5172 18.1712 37.5172L18.1072 33.2924L17.9187 20.8519C17.9187 20.8519 17.5147 22.0639 15.5956 22.0134C14.7754 21.9918 14.1311 21.2054 13.9796 20.8519C13.9741 20.8392 13.8825 20.613 13.8786 20.5994C13.8065 20.3471 13.4746 20.0944 13.4746 20.0944L9.586 22.3164L0.298584 16.9778V34.157Z" fill="#4B83FF"/>
<path opacity="0.050062" fill-rule="evenodd" clip-rule="evenodd" d="M18.1207 34.2346L19.0297 33.9316L19.0802 16.8967L17.8682 17.5693L18.1207 34.2346Z" fill="#4B83FF"/>
<path d="M20.8621 31.0487C19.7102 30.403 20.3679 29.45 20.9648 29.1879C23.0738 28.2627 24.0848 29.6947 24.2066 30.2762C24.2273 30.4233 24.3137 30.553 24.4416 30.6289C24.5695 30.7048 24.725 30.7188 24.8644 30.6668L28.4752 28.3667L19.1881 23.2253L9.73755 28.74L13.6093 30.9567C13.1551 31.4774 12.2712 31.0001 11.2045 31.6007C9.97594 32.295 10.6824 33.307 11.3141 33.5864C13.5641 34.5741 14.6447 33.0449 14.7717 32.4252C14.7878 32.2761 14.8693 32.1418 14.9942 32.0584C15.1192 31.975 15.2747 31.951 15.419 31.993L18.9828 34.0326L23.1243 31.6545C22.6927 31.165 21.8627 31.6128 20.8621 31.0487Z" fill="#E1EAFF"/>
<path d="M23.9647 36.7993C24.4222 36.3028 25.297 36.7628 26.3545 36.1691C27.5825 35.4747 26.8763 34.4608 26.245 34.1813C23.996 33.1952 22.9159 34.7229 22.7924 35.3479C22.7803 35.481 22.7145 35.6034 22.6103 35.6872C22.506 35.7709 22.3722 35.8089 22.2393 35.7924L18.886 33.8306L15.2108 35.9746C15.6369 36.4538 16.4614 36.0128 17.458 36.5736C18.6077 37.2194 17.952 38.1725 17.3554 38.4347C15.2473 39.36 14.2351 37.9278 14.115 37.3479C14.1037 37.2186 14.0389 37.0999 13.9363 37.0202C13.8337 36.9405 13.7025 36.907 13.5741 36.9278L9.43457 39.3409L18.679 44.6378L28.1199 39.2316L23.9647 36.7993Z" fill="#E1EAFF"/>
<path d="M28.4803 28.3765L24.5818 30.6584C24.3672 30.6323 24.1999 30.4606 24.1802 30.246C24.0585 29.6673 23.0465 28.2361 20.9407 29.1596C20.3426 29.4213 19.6871 30.3725 20.8382 31.0188C21.7928 31.5541 22.5892 31.173 23.0291 31.5628L19.0298 34.0065L22.0662 35.7659C22.1988 35.7824 22.5772 35.7448 22.6811 35.6611C22.7851 35.5775 22.8504 35.4553 22.8621 35.3226C22.9908 34.7041 23.914 33.1397 26.1536 34.1238C26.7917 34.4028 27.498 35.4282 26.2704 36.1178C25.2271 36.7051 24.285 36.1178 23.8179 36.8215L28.1389 39.2847L37.7152 33.7771L28.4803 28.3765Z" fill="#F5F8FF"/>
<path opacity="0.7" d="M0.353942 17.2672V33.5157" stroke="#004FFF" stroke-width="0.3" stroke-linecap="round" stroke-linejoin="round" stroke-dasharray="1.74 1.74"/>
<path opacity="0.7" d="M17.8683 21.0538L18.0198 37.6749" stroke="#004FFF" stroke-width="0.3" stroke-linecap="round" stroke-linejoin="round" stroke-dasharray="1.74 1.74"/>
<path opacity="0.7" d="M9.55673 22.6815V39.1511" stroke="#004FFF" stroke-width="0.3" stroke-linecap="round" stroke-linejoin="round" stroke-dasharray="1.74 1.74"/>
<path opacity="0.7" d="M9.88897 22.569V28.5281" stroke="#004FFF" stroke-width="0.3" stroke-linecap="round" stroke-linejoin="round" stroke-dasharray="1.74 1.74"/>
<path opacity="0.7" d="M13.5263 20.4804V36.9499" stroke="#004FFF" stroke-width="0.3" stroke-linecap="round" stroke-linejoin="round" stroke-dasharray="1.74 1.74"/>
<path opacity="0.7" d="M19.0297 16.9909L19.0802 34.0831" stroke="#004FFF" stroke-width="0.3" stroke-linecap="round" stroke-linejoin="round" stroke-dasharray="1.74 1.74"/>
<defs>
<linearGradient id="paint0_linear_179_1057" x1="8.26294" y1="20.4304" x2="8.54938" y2="20.4304" gradientUnits="userSpaceOnUse">
<stop stop-color="#CFD8DB"/>
<stop offset="1" stop-color="#CFD8DB"/>
</linearGradient>
<linearGradient id="paint1_linear_179_1057" x1="1.32007" y1="11.3879" x2="1.60651" y2="11.3879" gradientUnits="userSpaceOnUse">
<stop stop-color="#CFD8DB"/>
<stop offset="1" stop-color="#CFD8DB"/>
</linearGradient>
<linearGradient id="paint2_linear_179_1057" x1="2.35132" y1="12.4191" x2="2.63776" y2="12.4191" gradientUnits="userSpaceOnUse">
<stop stop-color="#CFD8DB"/>
<stop offset="1" stop-color="#CFD8DB"/>
</linearGradient>
<linearGradient id="paint3_linear_179_1057" x1="3.29224" y1="13.3603" x2="3.57867" y2="13.3603" gradientUnits="userSpaceOnUse">
<stop stop-color="#CFD8DB"/>
<stop offset="1" stop-color="#CFD8DB"/>
</linearGradient>
<linearGradient id="paint4_linear_179_1057" x1="6.28952" y1="18.4587" x2="6.57596" y2="18.4587" gradientUnits="userSpaceOnUse">
<stop stop-color="#CFD8DB"/>
<stop offset="1" stop-color="#CFD8DB"/>
</linearGradient>
<linearGradient id="paint5_linear_179_1057" x1="7.32202" y1="19.4893" x2="7.60846" y2="19.4893" gradientUnits="userSpaceOnUse">
<stop stop-color="#CFD8DB"/>
<stop offset="1" stop-color="#CFD8DB"/>
</linearGradient>
<linearGradient id="paint6_linear_179_1057" x1="4.58008" y1="15.5381" x2="5.03408" y2="15.5381" gradientUnits="userSpaceOnUse">
<stop stop-color="#CFD8DB"/>
<stop offset="1" stop-color="#CFD8DB"/>
</linearGradient>
<linearGradient id="paint7_linear_179_1057" x1="4.58008" y1="14.4414" x2="5.03408" y2="14.4414" gradientUnits="userSpaceOnUse">
<stop stop-color="#CFD8DB"/>
<stop offset="1" stop-color="#CFD8DB"/>
</linearGradient>
<linearGradient id="paint8_linear_179_1057" x1="4.58008" y1="13.3914" x2="5.03408" y2="13.3914" gradientUnits="userSpaceOnUse">
<stop stop-color="#CFD8DB"/>
<stop offset="1" stop-color="#CFD8DB"/>
</linearGradient>
</defs>
</svg>
