<svg width="318" height="161" viewBox="0 0 318 161" fill="none" xmlns="http://www.w3.org/2000/svg">
<g opacity="0.25" clip-path="url(#clip0_3903_2730)">
<path d="M288.182 54.0043C288.182 48.9509 284.086 44.8548 279.034 44.8548C276.071 44.8548 273.446 46.2695 271.774 48.4542C267.73 41.8477 262.856 36.1491 257.316 31.248C260.061 28.5956 264.52 26.6581 271.519 25.719C294.062 22.6924 305.582 33.8157 308.214 48.7233C310.754 63.1081 303.008 78.5566 285.704 82.573C283.918 75.5503 281.73 69.1084 279.207 63.145C284.178 63.0515 288.182 58.9988 288.182 54.0043Z" stroke="#004FFF" stroke-width="6" stroke-miterlimit="10" stroke-linecap="round" stroke-linejoin="round"/>
<path d="M279.034 44.8548C284.086 44.8548 288.182 48.9509 288.182 54.0043C288.182 58.9988 284.178 63.0515 279.207 63.1443C277.407 58.8908 275.438 54.8787 273.317 51.0799C272.818 50.1873 272.301 49.315 271.774 48.4535C273.446 46.2695 276.072 44.8548 279.034 44.8548Z" fill="#004FFF"/>
<path d="M17.4427 42.8498C20.0745 27.9415 31.5943 16.819 54.1365 19.8456C61.9521 20.8949 66.5994 23.1884 69.2297 26.3318C64.2442 30.6317 59.6049 35.5733 55.2379 41.2096C55.0259 41.483 54.824 41.7593 54.6156 42.0334C52.9487 39.7891 50.2864 38.3288 47.277 38.3288C42.2247 38.3288 38.1292 42.4249 38.1292 47.4782C38.1292 51.908 41.2765 55.601 45.4569 56.445C42.3517 62.4511 39.8339 68.9162 37.8184 76.126C22.018 71.3758 15.0098 56.6277 17.4427 42.8498Z" stroke="#004FFF" stroke-width="6" stroke-miterlimit="10" stroke-linecap="round" stroke-linejoin="round"/>
<path d="M38.1292 47.4782C38.1292 42.4249 42.2247 38.3288 47.277 38.3288C50.2871 38.3288 52.9487 39.7891 54.6156 42.0334C51.1198 46.6342 48.0764 51.3772 45.4569 56.445C41.2765 55.601 38.1292 51.908 38.1292 47.4782Z" fill="#004FFF"/>
<path d="M54.6156 42.0334C54.824 41.7593 55.0259 41.483 55.2379 41.2096C59.6056 35.5733 64.2441 30.6317 69.2297 26.3318C90.863 7.67605 119.022 1.10508 159.785 2.31384C195.129 3.36308 232.73 9.49681 257.316 31.248C262.856 36.1483 267.73 41.847 271.774 48.4542C272.301 49.3157 272.818 50.188 273.317 51.0806C275.438 54.8795 277.407 58.8908 279.207 63.145C281.73 69.1084 283.918 75.5503 285.704 82.573C289.165 96.1834 291.123 111.964 291.122 130.617C291.121 163.343 284.685 179.582 285.073 211.017C285.098 213.08 285.153 215.209 285.24 217.413C285.389 221.125 285.519 224.845 285.635 228.561C286.835 267.07 286.406 305.323 286.723 331.554C287.014 355.63 276.09 377.021 256.343 392.777C248.537 399.006 239.352 404.353 228.934 408.636C210.701 416.131 188.699 420.373 163.705 420.373C127.212 420.373 100.21 413.374 80.4424 402.726C72.1229 398.247 65.0878 393.119 59.1642 387.595C44.3831 373.812 36.5341 357.56 33.0209 342.714C24.6934 307.529 25.7854 281.746 29.5135 227.877C29.5883 226.792 29.6638 225.7 29.7407 224.593C30.1676 218.463 30.4827 213.029 30.7129 208.087C31.9711 181.009 30.6664 168.701 31.0606 137.797C31.3968 111.496 33.3803 91.998 37.817 76.1282C39.8324 68.9191 42.3503 62.454 45.4555 56.4472C48.0764 51.3772 51.1191 46.6335 54.6156 42.0334Z" stroke="#004FFF" stroke-width="6" stroke-miterlimit="10" stroke-linecap="round" stroke-linejoin="round"/>
<path d="M213.365 104.92C191.352 104.92 173.507 87.6816 173.507 66.4167C173.507 45.1518 191.352 27.9132 213.365 27.9132C235.378 27.9132 253.224 45.1518 253.224 66.4167C253.224 87.6816 235.378 104.92 213.365 104.92Z" stroke="#004FFF" stroke-width="6" stroke-miterlimit="10" stroke-linecap="round" stroke-linejoin="round"/>
<path d="M229.695 76.9768C222.117 76.9768 215.973 70.841 215.973 63.2721C215.973 55.7033 222.117 49.5675 229.695 49.5675C237.273 49.5675 243.417 55.7033 243.417 63.2721C243.417 70.841 237.273 76.9768 229.695 76.9768Z" fill="#004FFF"/>
<path d="M233.314 63.297C231.149 63.297 229.393 61.5439 229.393 59.3814C229.393 57.2189 231.149 55.4658 233.314 55.4658C235.479 55.4658 237.234 57.2189 237.234 59.3814C237.234 61.5439 235.479 63.297 233.314 63.297Z" fill="#F0F4FF"/>
<path d="M113.392 100.351C91.3788 100.351 73.5336 83.1127 73.5336 61.8478C73.5336 40.5829 91.3788 23.3443 113.392 23.3443C135.405 23.3443 153.251 40.5829 153.251 61.8478C153.251 83.1127 135.405 100.351 113.392 100.351Z" stroke="#004FFF" stroke-width="6" stroke-miterlimit="10" stroke-linecap="round" stroke-linejoin="round"/>
<path d="M129.722 72.4093C122.143 72.4093 116 66.2735 116 58.7046C116 51.1358 122.143 45 129.722 45C137.3 45 143.444 51.1358 143.444 58.7046C143.444 66.2735 137.3 72.4093 129.722 72.4093Z" fill="#004FFF"/>
<path d="M133.341 58.7295C131.176 58.7295 129.42 56.9765 129.42 54.8139C129.42 52.6514 131.176 50.8983 133.341 50.8983C135.506 50.8983 137.261 52.6514 137.261 54.8139C137.261 56.9765 135.506 58.7295 133.341 58.7295Z" fill="#F0F4FF"/>
<path d="M161.929 123.518C169.758 123.654 170.932 127.143 177.673 128.345C177.911 132.498 178.213 138.182 178.517 144.947C179.17 159.522 160.657 156.259 160.657 147.558C160.657 140.938 160.657 128.912 160.657 123.533C161.063 123.518 161.482 123.511 161.929 123.518Z" stroke="#004FFF" stroke-width="6" stroke-miterlimit="10" stroke-linecap="round" stroke-linejoin="round"/>
<path d="M160.657 147.557C160.657 156.258 142.143 159.521 142.797 144.947C143.108 137.998 143.419 132.192 143.66 128.013C152.146 127.626 153.182 123.798 160.657 123.532C160.657 128.911 160.657 140.937 160.657 147.557Z" stroke="#004FFF" stroke-width="6" stroke-miterlimit="10" stroke-linecap="round" stroke-linejoin="round"/>
<path d="M133.101 108.982C136.262 105.585 140.014 103.734 145.026 102.84C147.686 106.731 154.313 109.488 162.073 109.488C169.535 109.488 175.948 106.938 178.796 103.281C184.162 104.309 188.055 106.316 191.247 109.996C197.51 117.217 194.468 128.045 186.052 128.628C182.453 128.877 179.79 128.723 177.673 128.344C170.932 127.142 169.758 123.654 161.929 123.517C161.482 123.51 161.063 123.517 160.657 123.532C153.182 123.797 152.147 127.626 143.66 128.012C141.981 128.088 140.012 128.031 137.642 127.783C129.25 126.908 126.588 115.981 133.101 108.982Z" stroke="#004FFF" stroke-width="6" stroke-miterlimit="10" stroke-linecap="round" stroke-linejoin="round"/>
<path d="M162.072 109.488C154.312 109.488 147.686 106.731 145.026 102.84C144.222 101.664 143.775 100.385 143.775 99.0468C143.775 93.28 151.966 88.6052 162.071 88.6052C172.175 88.6052 180.367 93.28 180.367 99.0468C180.367 100.555 179.802 101.986 178.794 103.281C175.948 106.938 169.534 109.488 162.072 109.488Z" fill="#004FFF"/>
</g>
<defs>
<clipPath id="clip0_3903_2730">
<rect width="318" height="161" fill="white"/>
</clipPath>
</defs>
</svg>
