<svg width="351" height="258" viewBox="0 0 351 258" fill="none" xmlns="http://www.w3.org/2000/svg">
<g opacity="0.403915" filter="url(#filter0_f_1877_5361)">
<path d="M125.489 238C52.5002 197.308 92.9528 219.673 20 178.963L225.222 57.8687C225.433 57.9318 331.333 115.222 331.333 115.222C283.269 142.842 173.552 210.416 125.489 238Z" fill="#0743C9"/>
</g>
<path d="M125.489 211.766C52.5002 171.074 92.9528 193.439 20 152.729L225.222 31.6348C225.433 31.6979 331.333 88.9878 331.333 88.9878C283.269 116.608 173.552 184.182 125.489 211.766Z" fill="#F9F9F9"/>
<path d="M125.498 211.433L20 152.256V158.419L37.7139 168.465L125.498 217.813L269.679 131.871V125.599L125.498 211.433Z" fill="#EDEFF1"/>
<path d="M125.644 211.577L125.34 211.415V217.633L125.644 217.813L331.332 95.3534V88.4092L125.644 211.577Z" fill="#CFD8DB"/>
<path fill-rule="evenodd" clip-rule="evenodd" d="M89.1072 144.299L219.391 66.013C222.079 66.5125 224.949 67.0531 227.881 67.6055C233.905 68.7404 240.194 69.9253 245.729 70.9071C246.942 72.8379 248.091 74.7331 249.239 76.626L249.239 76.627L249.24 76.6277L249.24 76.6283L249.241 76.6296L249.241 76.63L249.242 76.6307C250.557 78.8004 251.871 80.9669 253.276 83.18L255.199 85.9592L124.916 164.236C122.079 163.713 119.258 163.19 116.446 162.669L116.411 162.663L116.362 162.654L116.354 162.652L116.345 162.65C111.6 161.771 106.88 160.897 102.152 160.03L98.5679 159.352C98.2099 158.672 97.8101 158.015 97.3709 157.385C94.641 153.007 91.874 148.649 89.1072 144.299ZM140.416 144.454C138.887 142.824 137.44 141.219 136.013 139.637L136.013 139.636C134.613 138.084 133.233 136.552 131.813 135.04L131.961 134.944C134.731 135.742 137.539 136.517 140.338 137.291L140.338 137.291L140.339 137.291L140.339 137.291C143.093 138.052 145.839 138.811 148.535 139.586L152.154 137.414L140.009 124.387L136.428 126.531L146.018 136.133L133.523 132.526L127.733 136.002L134.344 143.06L117.452 137.888L113.88 140.051L136.723 146.693L140.435 144.472L140.416 144.454ZM212.873 83.6696C215.602 84.2408 217.29 85.8334 216.024 87.9839C217.934 87.3774 219.971 87.2901 221.926 87.7308C225.693 88.6683 226.741 91.2472 224.837 93.3057C224.242 93.9759 223.562 94.5647 222.814 95.0568C219.539 97.0923 215.782 99.352 212.487 101.285L194.743 91.4026L196.236 90.4389C198.134 89.2854 200.045 88.1363 201.955 86.9887C202.762 86.5035 203.568 86.0186 204.373 85.5338C204.439 85.496 204.5 85.4584 204.56 85.4213C204.653 85.3633 204.745 85.3068 204.847 85.2536C207.253 83.974 209.843 83.0286 212.873 83.6696ZM169.496 117.862L179.841 111.615L177.456 110.297L170.766 114.324L165.748 111.542L176.326 105.207L174.044 103.943L159.81 112.471L169.496 117.862ZM189.67 112.297L191.923 113.542L177.28 122.264L175.046 121.018L189.67 112.297Z" fill="#0042D4"/>
<path d="M200.777 90.6033C202.726 89.4348 204.488 88.3539 206.28 87.31C208.275 86.15 209.66 85.9665 211.255 86.595C213.068 87.2947 213.488 88.2812 211.805 89.642C211.386 89.9876 210.947 90.3084 210.491 90.6025L212.385 91.6758C212.923 91.3758 213.638 90.9695 214.121 90.7079C216.557 89.5403 218.685 89.5219 220.337 90.6557C221.675 91.57 221.676 92.7044 220.063 93.7546C218.014 95.0936 215.785 96.3514 213.568 97.7028L200.777 90.6033Z" fill="#0042D4"/>
<path fill-rule="evenodd" clip-rule="evenodd" d="M136.246 164.488L143.915 168.743L143.915 168.733L146.699 167.1C147.18 166.808 147.606 166.432 147.955 165.99C148.225 165.658 148.379 165.248 148.394 164.82C148.388 164.402 148.235 164 147.962 163.684C147.601 163.255 147.158 162.902 146.659 162.647C146.109 162.351 145.526 162.122 144.922 161.965C142.893 161.468 140.75 161.788 138.956 162.857L136.246 164.488ZM144.517 162.394C145.061 162.527 145.585 162.732 146.075 163.004L146.112 163.004C146.523 163.255 146.884 163.579 147.179 163.96C147.418 164.217 147.571 164.542 147.617 164.89C147.637 165.254 147.524 165.613 147.297 165.899C146.972 166.288 146.577 166.613 146.132 166.857L144.008 168.132L137.323 164.432L139.458 163.148C139.971 162.833 140.53 162.599 141.114 162.453C142.225 162.146 143.396 162.126 144.517 162.394Z" fill="#0042D4"/>
<path d="M168.597 153.357L169.099 153.629L163.652 156.894L155.983 152.649L161.318 149.443L161.811 149.715L157.069 152.574L160.08 154.237L164.228 151.745L164.701 152.009L160.553 154.5L163.735 156.264L168.597 153.357Z" fill="#0042D4"/>
<path d="M174.243 141.679L184.33 143.678L180.451 137.942L181.073 137.575L185.299 143.896L184.752 144.224L173.622 142.055L174.243 141.679Z" fill="#0042D4"/>
<path d="M206.454 130.615L206.947 130.888L201.5 134.152L193.831 129.908L199.166 126.702L199.659 126.974L194.917 129.832L197.928 131.496L202.076 129.004L202.549 129.268L198.402 131.759L201.583 133.523L206.454 130.615Z" fill="#0042D4"/>
<path d="M220.039 123.018L212.37 118.773L212.964 118.416L220.131 122.388L225.012 119.462L225.504 119.735L220.039 123.018Z" fill="#0042D4"/>
<path fill-rule="evenodd" clip-rule="evenodd" d="M239.677 110.917C240.333 110.765 240.962 110.511 241.539 110.163C242.018 109.897 242.429 109.524 242.739 109.073C242.981 108.722 243.105 108.303 243.093 107.876C243.066 107.455 242.919 107.051 242.67 106.711C242.345 106.297 241.936 105.956 241.471 105.71C240.942 105.427 240.377 105.22 239.791 105.093C239.124 104.947 238.444 104.874 237.762 104.875C237.056 104.869 236.353 104.947 235.666 105.108C235.009 105.256 234.381 105.508 233.803 105.854C233.325 106.119 232.914 106.492 232.604 106.943C232.359 107.294 232.235 107.714 232.249 108.14C232.273 108.571 232.428 108.983 232.692 109.323C233.005 109.733 233.405 110.069 233.862 110.306C234.403 110.594 234.981 110.805 235.58 110.933C236.242 111.085 236.92 111.161 237.6 111.16C238.299 111.154 238.995 111.073 239.677 110.917ZM235.919 110.514C235.393 110.4 234.885 110.213 234.41 109.959C234.034 109.751 233.704 109.47 233.439 109.132C233.2 108.85 233.051 108.504 233.009 108.137C232.976 107.77 233.066 107.403 233.262 107.092C233.523 106.689 233.882 106.36 234.305 106.136C234.79 105.844 235.318 105.632 235.87 105.508C236.45 105.379 237.043 105.315 237.638 105.318C238.226 105.316 238.813 105.381 239.386 105.513C239.925 105.622 240.446 105.809 240.933 106.067C241.302 106.277 241.625 106.559 241.885 106.894C242.12 107.176 242.273 107.517 242.324 107.88C242.356 108.246 242.27 108.612 242.08 108.925C241.814 109.32 241.46 109.647 241.046 109.881C240.549 110.173 240.008 110.385 239.445 110.509C238.862 110.645 238.265 110.715 237.667 110.718C237.078 110.722 236.491 110.654 235.919 110.514Z" fill="#0042D4"/>
<path fill-rule="evenodd" clip-rule="evenodd" d="M250.711 95.77L258.38 100.024L258.379 99.9867L258.973 99.6294L256.076 98.0392L258.916 96.3394C259.211 96.1699 259.466 95.9383 259.663 95.6606C259.8 95.4409 259.868 95.1847 259.857 94.9259C259.829 94.6668 259.727 94.4213 259.563 94.2185C259.366 93.9674 259.116 93.7636 258.831 93.6218C258.504 93.4494 258.154 93.3229 257.793 93.2461C256.947 93.0732 256.073 93.0884 255.234 93.2908C254.827 93.3823 254.437 93.5378 254.079 93.7516L250.711 95.77ZM258.311 96.0875L255.528 97.7769L255.519 97.7865L251.732 95.6961L254.515 94.0348C254.778 93.8848 255.06 93.7726 255.353 93.7014C255.679 93.6269 256.012 93.5896 256.345 93.5903C256.661 93.5876 256.976 93.6199 257.285 93.6864C257.589 93.7445 257.882 93.8501 258.153 93.9994C258.374 94.1169 258.571 94.2758 258.733 94.4675C258.874 94.6159 258.966 94.8042 258.995 95.0067C259.024 95.2034 258.98 95.4036 258.874 95.5714C258.73 95.7856 258.537 95.9625 258.311 96.0875Z" fill="#0042D4"/>
<path d="M289.534 65.6741L259.961 48.6053L290.695 30.8633L320.268 47.9343L289.534 65.6741Z" fill="#F7F7F7"/>
<path d="M259.961 48.6052V85.5397L289.534 102.608V65.674L259.961 48.6052Z" fill="#E6E9ED"/>
<path d="M263.948 67.0143C263.802 67.0143 263.683 66.8672 263.683 66.6858V59.3682C263.683 59.1868 263.802 59.0398 263.948 59.0398C264.095 59.0398 264.214 59.1868 264.214 59.3682V66.6858C264.214 66.8672 264.095 67.0143 263.948 67.0143Z" fill="url(#paint0_linear_1877_5361)"/>
<path d="M266.607 69.141C266.46 69.141 266.341 68.9939 266.341 68.8124V61.4951C266.341 61.3136 266.46 61.1665 266.607 61.1665C266.753 61.1665 266.872 61.3136 266.872 61.4951V68.8124C266.872 68.9939 266.753 69.141 266.607 69.141Z" fill="url(#paint1_linear_1877_5361)"/>
<path d="M269.265 71.2672C269.118 71.2672 268.999 71.12 268.999 70.9385V63.6214C268.999 63.4399 269.118 63.2927 269.265 63.2927C269.412 63.2927 269.531 63.4399 269.531 63.6214V70.9385C269.531 71.12 269.412 71.2672 269.265 71.2672Z" fill="url(#paint2_linear_1877_5361)"/>
<path d="M278.302 90.4061C278.156 90.4061 278.037 90.259 278.037 90.0776V82.7602C278.037 82.5787 278.156 82.4316 278.302 82.4316C278.449 82.4316 278.568 82.5787 278.568 82.7602V90.0776C278.568 90.259 278.449 90.4061 278.302 90.4061Z" fill="url(#paint3_linear_1877_5361)"/>
<path d="M280.961 92.5328C280.814 92.5328 280.695 92.386 280.695 92.2049V84.8862C280.695 84.7052 280.814 84.5583 280.961 84.5583C281.107 84.5583 281.226 84.7052 281.226 84.8862V92.2049C281.226 92.386 281.107 92.5328 280.961 92.5328Z" fill="url(#paint4_linear_1877_5361)"/>
<path d="M283.619 94.6593C283.472 94.6593 283.353 94.5123 283.353 94.3309V87.0133C283.353 86.8319 283.472 86.6848 283.619 86.6848C283.766 86.6848 283.885 86.8319 283.885 87.0133V94.3309C283.885 94.5123 283.766 94.6593 283.619 94.6593Z" fill="url(#paint5_linear_1877_5361)"/>
<path opacity="0.6" d="M278.037 77.6012V77.6929C278.037 77.8664 278.137 78.0269 278.301 78.1147C278.466 78.2004 278.668 78.1997 278.832 78.113C278.997 78.0262 279.099 77.8664 279.1 77.6929V77.6012C279.099 77.4273 278.997 77.267 278.832 77.1795C278.668 77.0934 278.466 77.0939 278.302 77.1808C278.138 77.2677 278.037 77.4279 278.037 77.6012Z" fill="url(#paint6_linear_1877_5361)"/>
<path opacity="0.6" d="M278.037 74.9418V75.0334C278.036 75.2068 278.137 75.3674 278.301 75.4546C278.466 75.5422 278.669 75.5425 278.834 75.4555C278.999 75.3685 279.101 75.2074 279.1 75.0334V74.9418C279.099 74.7687 278.997 74.6091 278.832 74.5237C278.669 74.4359 278.466 74.4351 278.301 74.5216C278.137 74.6081 278.036 74.7685 278.037 74.9418Z" fill="url(#paint7_linear_1877_5361)"/>
<path opacity="0.6" d="M278.037 72.2836V72.3752C278.036 72.5486 278.137 72.7092 278.301 72.7964C278.466 72.884 278.669 72.8843 278.834 72.7973C278.999 72.7103 279.101 72.5492 279.1 72.3752V72.2836C279.099 72.1105 278.997 71.9509 278.832 71.8655C278.669 71.7777 278.466 71.7769 278.301 71.8634C278.137 71.9498 278.036 72.1103 278.037 72.2836Z" fill="url(#paint8_linear_1877_5361)"/>
<path d="M289.534 65.674L320.268 47.9341V84.8685L289.534 102.608V65.674Z" fill="url(#paint9_linear_1877_5361)"/>
<path d="M167.847 24.1742L147.311 12.3209L168.653 0L189.19 11.8548L167.847 24.1742Z" fill="#F7F7F7"/>
<path d="M147.311 12.3208V37.9697L167.847 49.8231V24.1741L147.311 12.3208Z" fill="#E6E9ED"/>
<path d="M150.08 25.105C149.978 25.105 149.895 25.0029 149.895 24.8769V19.7952C149.895 19.6693 149.978 19.5671 150.08 19.5671C150.182 19.5671 150.264 19.6693 150.264 19.7952V24.8769C150.264 25.0029 150.182 25.105 150.08 25.105Z" fill="url(#paint10_linear_1877_5361)"/>
<path d="M151.926 26.5813C151.824 26.5813 151.741 26.4791 151.741 26.3531V21.2716C151.741 21.1456 151.824 21.0435 151.926 21.0435C152.028 21.0435 152.11 21.1456 152.11 21.2716V26.3531C152.11 26.4791 152.028 26.5813 151.926 26.5813Z" fill="url(#paint11_linear_1877_5361)"/>
<path d="M153.772 28.0583C153.67 28.0583 153.587 27.9561 153.587 27.8301V22.7488C153.587 22.6227 153.67 22.5205 153.772 22.5205C153.873 22.5205 153.956 22.6227 153.956 22.7488V27.8301C153.956 27.9561 153.873 28.0583 153.772 28.0583Z" fill="url(#paint12_linear_1877_5361)"/>
<path d="M160.048 41.3491C159.946 41.3491 159.863 41.247 159.863 41.1209V36.0395C159.863 35.9134 159.946 35.8113 160.048 35.8113C160.15 35.8113 160.232 35.9134 160.232 36.0395V41.1209C160.232 41.247 160.15 41.3491 160.048 41.3491Z" fill="url(#paint13_linear_1877_5361)"/>
<path d="M161.894 42.8259C161.792 42.8259 161.709 42.724 161.709 42.5982V37.5158C161.709 37.39 161.792 37.2881 161.894 37.2881C161.996 37.2881 162.078 37.39 162.078 37.5158V42.5982C162.078 42.724 161.996 42.8259 161.894 42.8259Z" fill="url(#paint14_linear_1877_5361)"/>
<path d="M163.74 44.3027C163.638 44.3027 163.555 44.2006 163.555 44.0747V38.993C163.555 38.867 163.638 38.7649 163.74 38.7649C163.842 38.7649 163.924 38.867 163.924 38.993V44.0747C163.924 44.2006 163.842 44.3027 163.74 44.3027Z" fill="url(#paint15_linear_1877_5361)"/>
<path opacity="0.6" d="M159.863 32.4571V32.5208C159.863 32.6413 159.933 32.7527 160.047 32.8137C160.161 32.8732 160.302 32.8727 160.416 32.8125C160.53 32.7523 160.601 32.6413 160.602 32.5208V32.4571C160.601 32.3364 160.53 32.225 160.416 32.1642C160.302 32.1044 160.161 32.1048 160.047 32.1652C159.933 32.2255 159.863 32.3368 159.863 32.4571Z" fill="url(#paint16_linear_1877_5361)"/>
<path opacity="0.6" d="M159.863 30.6097V30.6733C159.863 30.7937 159.933 30.9052 160.047 30.9658C160.161 31.0266 160.302 31.0268 160.417 30.9664C160.532 30.906 160.602 30.7941 160.602 30.6733V30.6097C160.601 30.4895 160.53 30.3786 160.416 30.3193C160.302 30.2583 160.161 30.2578 160.047 30.3178C159.933 30.3779 159.863 30.4893 159.863 30.6097Z" fill="url(#paint17_linear_1877_5361)"/>
<path opacity="0.6" d="M159.863 28.764V28.8276C159.863 28.948 159.933 29.0595 160.047 29.1201C160.161 29.1809 160.302 29.1811 160.417 29.1207C160.532 29.0603 160.602 28.9484 160.602 28.8276V28.764C160.601 28.6438 160.53 28.5329 160.416 28.4736C160.302 28.4126 160.161 28.4121 160.047 28.4721C159.933 28.5322 159.863 28.6436 159.863 28.764Z" fill="url(#paint18_linear_1877_5361)"/>
<path d="M167.847 24.1741L189.19 11.8547V37.5036L167.847 49.823V24.1741Z" fill="url(#paint19_linear_1877_5361)"/>
<path d="M71.6608 125.92L53.1777 115.252L72.3861 104.163L90.8691 114.833L71.6608 125.92Z" fill="#F7F7F7"/>
<path d="M53.1777 115.252V138.336L71.6608 149.004V125.92L53.1777 115.252Z" fill="#E6E9ED"/>
<path d="M55.6696 126.758C55.5778 126.758 55.5034 126.666 55.5034 126.552V121.979C55.5034 121.866 55.5778 121.774 55.6696 121.774C55.7613 121.774 55.8357 121.866 55.8357 121.979V126.552C55.8357 126.666 55.7613 126.758 55.6696 126.758Z" fill="url(#paint20_linear_1877_5361)"/>
<path d="M57.3312 128.087C57.2394 128.087 57.165 127.995 57.165 127.881V123.308C57.165 123.195 57.2394 123.103 57.3312 123.103C57.4229 123.103 57.4973 123.195 57.4973 123.308V127.881C57.4973 127.995 57.4229 128.087 57.3312 128.087Z" fill="url(#paint21_linear_1877_5361)"/>
<path d="M58.9923 129.416C58.9006 129.416 58.8262 129.324 58.8262 129.21V124.637C58.8262 124.524 58.9006 124.432 58.9923 124.432C59.0841 124.432 59.1584 124.524 59.1584 124.637V129.21C59.1584 129.324 59.0841 129.416 58.9923 129.416Z" fill="url(#paint22_linear_1877_5361)"/>
<path d="M64.6407 141.378C64.549 141.378 64.4746 141.286 64.4746 141.172V136.599C64.4746 136.485 64.549 136.394 64.6407 136.394C64.7325 136.394 64.8069 136.485 64.8069 136.599V141.172C64.8069 141.286 64.7325 141.378 64.6407 141.378Z" fill="url(#paint23_linear_1877_5361)"/>
<path d="M66.3024 142.707C66.2106 142.707 66.1362 142.615 66.1362 142.502V137.928C66.1362 137.814 66.2106 137.723 66.3024 137.723C66.3941 137.723 66.4685 137.814 66.4685 137.928V142.502C66.4685 142.615 66.3941 142.707 66.3024 142.707Z" fill="url(#paint24_linear_1877_5361)"/>
<path d="M67.9635 144.036C67.8717 144.036 67.7974 143.944 67.7974 143.831V139.257C67.7974 139.144 67.8717 139.052 67.9635 139.052C68.0553 139.052 68.1296 139.144 68.1296 139.257V143.831C68.1296 143.944 68.0553 144.036 67.9635 144.036Z" fill="url(#paint25_linear_1877_5361)"/>
<path opacity="0.6" d="M64.4746 133.375V133.432C64.4746 133.54 64.5374 133.641 64.6397 133.695C64.7428 133.749 64.8693 133.749 64.972 133.694C65.0747 133.64 65.1383 133.54 65.1392 133.432V133.375C65.1383 133.266 65.0747 133.166 64.972 133.111C64.8691 133.057 64.7427 133.057 64.6402 133.112C64.5377 133.166 64.4746 133.266 64.4746 133.375Z" fill="url(#paint26_linear_1877_5361)"/>
<path opacity="0.6" d="M64.4746 131.713V131.77C64.4742 131.878 64.5371 131.978 64.6397 132.033C64.7427 132.088 64.8698 132.088 64.973 132.034C65.0762 131.979 65.1396 131.879 65.1391 131.77V131.713C65.1388 131.604 65.075 131.505 64.972 131.451C64.8696 131.396 64.7429 131.396 64.6401 131.45C64.5372 131.504 64.474 131.604 64.4746 131.713Z" fill="url(#paint27_linear_1877_5361)"/>
<path opacity="0.6" d="M64.4746 130.051V130.108C64.4742 130.217 64.5371 130.317 64.6397 130.371C64.7427 130.426 64.8698 130.426 64.973 130.372C65.0762 130.318 65.1396 130.217 65.1391 130.108V130.051C65.1388 129.943 65.075 129.843 64.972 129.79C64.8696 129.735 64.7429 129.734 64.6401 129.788C64.5372 129.842 64.474 129.943 64.4746 130.051Z" fill="url(#paint28_linear_1877_5361)"/>
<path d="M71.6606 125.92L90.869 114.833V137.917L71.6606 149.004V125.92Z" fill="url(#paint29_linear_1877_5361)"/>
<path d="M129.057 40.1199L121.849 35.9594L129.34 31.6348L136.548 35.7958L129.057 40.1199Z" fill="#F7F7F7"/>
<path d="M121.849 35.9595V44.9622L129.057 49.1228V40.12L121.849 35.9595Z" fill="#E6E9ED"/>
<path d="M122.821 40.4467C122.785 40.4467 122.756 40.4109 122.756 40.3667V38.583C122.756 38.5388 122.785 38.5029 122.821 38.5029C122.856 38.5029 122.885 38.5388 122.885 38.583V40.3667C122.885 40.4109 122.856 40.4467 122.821 40.4467Z" fill="url(#paint30_linear_1877_5361)"/>
<path d="M123.469 40.965C123.433 40.965 123.404 40.9292 123.404 40.8849V39.1013C123.404 39.0571 123.433 39.0212 123.469 39.0212C123.504 39.0212 123.533 39.0571 123.533 39.1013V40.8849C123.533 40.9292 123.504 40.965 123.469 40.965Z" fill="url(#paint31_linear_1877_5361)"/>
<path d="M124.117 41.4833C124.081 41.4833 124.052 41.4475 124.052 41.4032V39.6197C124.052 39.5754 124.081 39.5396 124.117 39.5396C124.152 39.5396 124.181 39.5754 124.181 39.6197V41.4032C124.181 41.4475 124.152 41.4833 124.117 41.4833Z" fill="url(#paint32_linear_1877_5361)"/>
<path d="M126.32 46.1484C126.284 46.1484 126.255 46.1125 126.255 46.0683V44.2847C126.255 44.2404 126.284 44.2046 126.32 44.2046C126.355 44.2046 126.384 44.2404 126.384 44.2847V46.0683C126.384 46.1125 126.355 46.1484 126.32 46.1484Z" fill="url(#paint33_linear_1877_5361)"/>
<path d="M126.968 46.6667C126.932 46.6667 126.903 46.6309 126.903 46.5868V44.8028C126.903 44.7587 126.932 44.7229 126.968 44.7229C127.003 44.7229 127.032 44.7587 127.032 44.8028V46.5868C127.032 46.6309 127.003 46.6667 126.968 46.6667Z" fill="url(#paint34_linear_1877_5361)"/>
<path d="M127.616 47.1852C127.58 47.1852 127.551 47.1494 127.551 47.1052V45.3215C127.551 45.2773 127.58 45.2415 127.616 45.2415C127.651 45.2415 127.68 45.2773 127.68 45.3215V47.1052C127.68 47.1494 127.651 47.1852 127.616 47.1852Z" fill="url(#paint35_linear_1877_5361)"/>
<path opacity="0.6" d="M126.255 43.0269V43.0492C126.255 43.0914 126.279 43.1304 126.319 43.1518C126.359 43.1726 126.408 43.1724 126.448 43.1513C126.488 43.1302 126.513 43.0914 126.513 43.0492V43.0269C126.513 42.9846 126.488 42.9456 126.448 42.9243C126.408 42.9034 126.359 42.9035 126.319 42.9246C126.279 42.9458 126.255 42.9847 126.255 43.0269Z" fill="url(#paint36_linear_1877_5361)"/>
<path opacity="0.6" d="M126.255 42.3788V42.4011C126.255 42.4433 126.279 42.4823 126.319 42.5035C126.359 42.5248 126.409 42.5249 126.449 42.5038C126.489 42.4826 126.514 42.4434 126.513 42.4011V42.3788C126.513 42.3367 126.489 42.2979 126.448 42.2771C126.409 42.2558 126.359 42.2556 126.319 42.2766C126.279 42.2977 126.255 42.3367 126.255 42.3788Z" fill="url(#paint37_linear_1877_5361)"/>
<path opacity="0.6" d="M126.255 41.7306V41.7529C126.255 41.7951 126.279 41.8341 126.319 41.8553C126.359 41.8766 126.409 41.8767 126.449 41.8556C126.489 41.8344 126.514 41.7952 126.513 41.7529V41.7306C126.513 41.6885 126.489 41.6497 126.448 41.6289C126.409 41.6076 126.359 41.6074 126.319 41.6284C126.279 41.6495 126.255 41.6885 126.255 41.7306Z" fill="url(#paint38_linear_1877_5361)"/>
<path d="M129.057 40.12L136.548 35.7959V44.7987L129.057 49.1228V40.12Z" fill="url(#paint39_linear_1877_5361)"/>
<path d="M48.8364 141.908L37.7466 135.507L49.2716 128.854L60.3614 135.255L48.8364 141.908Z" fill="#F7F7F7"/>
<path d="M37.7466 135.507V149.357L48.8364 155.758V141.908L37.7466 135.507Z" fill="#E6E9ED"/>
<path d="M39.2418 142.411C39.1867 142.411 39.1421 142.355 39.1421 142.287V139.543C39.1421 139.475 39.1867 139.42 39.2418 139.42C39.2968 139.42 39.3415 139.475 39.3415 139.543V142.287C39.3415 142.355 39.2968 142.411 39.2418 142.411Z" fill="url(#paint40_linear_1877_5361)"/>
<path d="M40.2384 143.208C40.1833 143.208 40.1387 143.153 40.1387 143.085V140.341C40.1387 140.273 40.1833 140.218 40.2384 140.218C40.2934 140.218 40.338 140.273 40.338 140.341V143.085C40.338 143.153 40.2934 143.208 40.2384 143.208Z" fill="url(#paint41_linear_1877_5361)"/>
<path d="M41.2354 144.005C41.1804 144.005 41.1357 143.95 41.1357 143.882V141.138C41.1357 141.07 41.1804 141.015 41.2354 141.015C41.2905 141.015 41.3351 141.07 41.3351 141.138V143.882C41.3351 143.95 41.2905 144.005 41.2354 144.005Z" fill="url(#paint42_linear_1877_5361)"/>
<path d="M44.6246 151.183C44.5695 151.183 44.5249 151.127 44.5249 151.059V148.315C44.5249 148.247 44.5695 148.192 44.6246 148.192C44.6796 148.192 44.7243 148.247 44.7243 148.315V151.059C44.7243 151.127 44.6796 151.183 44.6246 151.183Z" fill="url(#paint43_linear_1877_5361)"/>
<path d="M45.6217 151.98C45.5666 151.98 45.522 151.925 45.522 151.857V149.112C45.522 149.045 45.5666 148.99 45.6217 148.99C45.6767 148.99 45.7213 149.045 45.7213 149.112V151.857C45.7213 151.925 45.6767 151.98 45.6217 151.98Z" fill="url(#paint44_linear_1877_5361)"/>
<path d="M46.6182 152.777C46.5632 152.777 46.5186 152.722 46.5186 152.654V149.91C46.5186 149.842 46.5632 149.787 46.6182 149.787C46.6733 149.787 46.7179 149.842 46.7179 149.91V152.654C46.7179 152.722 46.6733 152.777 46.6182 152.777Z" fill="url(#paint45_linear_1877_5361)"/>
<path opacity="0.6" d="M44.5249 146.38V146.415C44.5249 146.48 44.5625 146.54 44.6237 146.572C44.6855 146.604 44.7612 146.604 44.8227 146.572C44.8841 146.539 44.9222 146.48 44.9227 146.415V146.38C44.9222 146.315 44.8842 146.255 44.8226 146.223C44.7611 146.19 44.6854 146.19 44.624 146.223C44.5627 146.256 44.5249 146.315 44.5249 146.38Z" fill="url(#paint46_linear_1877_5361)"/>
<path opacity="0.6" d="M44.5249 145.383V145.417C44.5246 145.482 44.5623 145.542 44.6237 145.575C44.6854 145.608 44.7615 145.608 44.8233 145.575C44.885 145.543 44.923 145.482 44.9227 145.417V145.383C44.9225 145.318 44.8843 145.258 44.8226 145.227C44.7614 145.194 44.6855 145.193 44.624 145.226C44.5624 145.258 44.5246 145.318 44.5249 145.383Z" fill="url(#paint47_linear_1877_5361)"/>
<path opacity="0.6" d="M44.5249 144.386V144.42C44.5246 144.485 44.5623 144.545 44.6237 144.578C44.6854 144.611 44.7615 144.611 44.8233 144.578C44.885 144.546 44.923 144.486 44.9227 144.42V144.386C44.9225 144.321 44.8843 144.262 44.8226 144.23C44.7614 144.197 44.6855 144.197 44.624 144.229C44.5624 144.261 44.5246 144.321 44.5249 144.386Z" fill="url(#paint48_linear_1877_5361)"/>
<path d="M48.8364 141.908L60.3614 135.256V149.106L48.8364 155.758V141.908Z" fill="url(#paint49_linear_1877_5361)"/>
<defs>
<filter id="filter0_f_1877_5361" x="0.972027" y="38.8407" width="349.388" height="218.188" filterUnits="userSpaceOnUse" color-interpolation-filters="sRGB">
<feFlood flood-opacity="0" result="BackgroundImageFix"/>
<feBlend mode="normal" in="SourceGraphic" in2="BackgroundImageFix" result="shape"/>
<feGaussianBlur stdDeviation="9.51399" result="effect1_foregroundBlur_1877_5361"/>
</filter>
<linearGradient id="paint0_linear_1877_5361" x1="263.683" y1="67.0143" x2="264.214" y2="67.0143" gradientUnits="userSpaceOnUse">
<stop stop-color="#CFD8DB"/>
<stop offset="1" stop-color="#CFD8DB"/>
</linearGradient>
<linearGradient id="paint1_linear_1877_5361" x1="266.341" y1="69.1394" x2="266.872" y2="69.1394" gradientUnits="userSpaceOnUse">
<stop stop-color="#CFD8DB"/>
<stop offset="1" stop-color="#CFD8DB"/>
</linearGradient>
<linearGradient id="paint2_linear_1877_5361" x1="268.999" y1="71.2639" x2="269.531" y2="71.2639" gradientUnits="userSpaceOnUse">
<stop stop-color="#CFD8DB"/>
<stop offset="1" stop-color="#CFD8DB"/>
</linearGradient>
<linearGradient id="paint3_linear_1877_5361" x1="278.029" y1="90.4078" x2="278.56" y2="90.4078" gradientUnits="userSpaceOnUse">
<stop stop-color="#CFD8DB"/>
<stop offset="1" stop-color="#CFD8DB"/>
</linearGradient>
<linearGradient id="paint4_linear_1877_5361" x1="280.695" y1="92.5263" x2="281.226" y2="92.5263" gradientUnits="userSpaceOnUse">
<stop stop-color="#CFD8DB"/>
<stop offset="1" stop-color="#CFD8DB"/>
</linearGradient>
<linearGradient id="paint5_linear_1877_5361" x1="283.353" y1="94.6593" x2="283.885" y2="94.6593" gradientUnits="userSpaceOnUse">
<stop stop-color="#CFD8DB"/>
<stop offset="1" stop-color="#CFD8DB"/>
</linearGradient>
<linearGradient id="paint6_linear_1877_5361" x1="278.037" y1="78.1787" x2="279.1" y2="78.1787" gradientUnits="userSpaceOnUse">
<stop stop-color="#CFD8DB"/>
<stop offset="1" stop-color="#CFD8DB"/>
</linearGradient>
<linearGradient id="paint7_linear_1877_5361" x1="278.037" y1="75.5193" x2="279.1" y2="75.5193" gradientUnits="userSpaceOnUse">
<stop stop-color="#CFD8DB"/>
<stop offset="1" stop-color="#CFD8DB"/>
</linearGradient>
<linearGradient id="paint8_linear_1877_5361" x1="278.037" y1="72.861" x2="279.1" y2="72.861" gradientUnits="userSpaceOnUse">
<stop stop-color="#CFD8DB"/>
<stop offset="1" stop-color="#CFD8DB"/>
</linearGradient>
<linearGradient id="paint9_linear_1877_5361" x1="289.534" y1="102.609" x2="320.268" y2="102.609" gradientUnits="userSpaceOnUse">
<stop stop-color="#CFD8DB"/>
<stop offset="1" stop-color="#CFD8DB"/>
</linearGradient>
<linearGradient id="paint10_linear_1877_5361" x1="149.895" y1="25.105" x2="150.264" y2="25.105" gradientUnits="userSpaceOnUse">
<stop stop-color="#CFD8DB"/>
<stop offset="1" stop-color="#CFD8DB"/>
</linearGradient>
<linearGradient id="paint11_linear_1877_5361" x1="151.741" y1="26.5802" x2="152.11" y2="26.5802" gradientUnits="userSpaceOnUse">
<stop stop-color="#CFD8DB"/>
<stop offset="1" stop-color="#CFD8DB"/>
</linearGradient>
<linearGradient id="paint12_linear_1877_5361" x1="153.587" y1="28.0561" x2="153.956" y2="28.0561" gradientUnits="userSpaceOnUse">
<stop stop-color="#CFD8DB"/>
<stop offset="1" stop-color="#CFD8DB"/>
</linearGradient>
<linearGradient id="paint13_linear_1877_5361" x1="159.858" y1="41.3503" x2="160.227" y2="41.3503" gradientUnits="userSpaceOnUse">
<stop stop-color="#CFD8DB"/>
<stop offset="1" stop-color="#CFD8DB"/>
</linearGradient>
<linearGradient id="paint14_linear_1877_5361" x1="161.709" y1="42.8214" x2="162.078" y2="42.8214" gradientUnits="userSpaceOnUse">
<stop stop-color="#CFD8DB"/>
<stop offset="1" stop-color="#CFD8DB"/>
</linearGradient>
<linearGradient id="paint15_linear_1877_5361" x1="163.555" y1="44.3027" x2="163.924" y2="44.3027" gradientUnits="userSpaceOnUse">
<stop stop-color="#CFD8DB"/>
<stop offset="1" stop-color="#CFD8DB"/>
</linearGradient>
<linearGradient id="paint16_linear_1877_5361" x1="159.863" y1="32.8582" x2="160.602" y2="32.8582" gradientUnits="userSpaceOnUse">
<stop stop-color="#CFD8DB"/>
<stop offset="1" stop-color="#CFD8DB"/>
</linearGradient>
<linearGradient id="paint17_linear_1877_5361" x1="159.863" y1="31.0107" x2="160.602" y2="31.0107" gradientUnits="userSpaceOnUse">
<stop stop-color="#CFD8DB"/>
<stop offset="1" stop-color="#CFD8DB"/>
</linearGradient>
<linearGradient id="paint18_linear_1877_5361" x1="159.863" y1="29.165" x2="160.602" y2="29.165" gradientUnits="userSpaceOnUse">
<stop stop-color="#CFD8DB"/>
<stop offset="1" stop-color="#CFD8DB"/>
</linearGradient>
<linearGradient id="paint19_linear_1877_5361" x1="167.847" y1="49.8238" x2="189.19" y2="49.8238" gradientUnits="userSpaceOnUse">
<stop stop-color="#CFD8DB"/>
<stop offset="1" stop-color="#CFD8DB"/>
</linearGradient>
<linearGradient id="paint20_linear_1877_5361" x1="55.5034" y1="126.758" x2="55.8357" y2="126.758" gradientUnits="userSpaceOnUse">
<stop stop-color="#CFD8DB"/>
<stop offset="1" stop-color="#CFD8DB"/>
</linearGradient>
<linearGradient id="paint21_linear_1877_5361" x1="57.165" y1="128.086" x2="57.4973" y2="128.086" gradientUnits="userSpaceOnUse">
<stop stop-color="#CFD8DB"/>
<stop offset="1" stop-color="#CFD8DB"/>
</linearGradient>
<linearGradient id="paint22_linear_1877_5361" x1="58.8262" y1="129.414" x2="59.1584" y2="129.414" gradientUnits="userSpaceOnUse">
<stop stop-color="#CFD8DB"/>
<stop offset="1" stop-color="#CFD8DB"/>
</linearGradient>
<linearGradient id="paint23_linear_1877_5361" x1="64.4696" y1="141.379" x2="64.8019" y2="141.379" gradientUnits="userSpaceOnUse">
<stop stop-color="#CFD8DB"/>
<stop offset="1" stop-color="#CFD8DB"/>
</linearGradient>
<linearGradient id="paint24_linear_1877_5361" x1="66.1362" y1="142.703" x2="66.4685" y2="142.703" gradientUnits="userSpaceOnUse">
<stop stop-color="#CFD8DB"/>
<stop offset="1" stop-color="#CFD8DB"/>
</linearGradient>
<linearGradient id="paint25_linear_1877_5361" x1="67.7974" y1="144.036" x2="68.1296" y2="144.036" gradientUnits="userSpaceOnUse">
<stop stop-color="#CFD8DB"/>
<stop offset="1" stop-color="#CFD8DB"/>
</linearGradient>
<linearGradient id="paint26_linear_1877_5361" x1="64.4746" y1="133.735" x2="65.1392" y2="133.735" gradientUnits="userSpaceOnUse">
<stop stop-color="#CFD8DB"/>
<stop offset="1" stop-color="#CFD8DB"/>
</linearGradient>
<linearGradient id="paint27_linear_1877_5361" x1="64.4746" y1="132.073" x2="65.1391" y2="132.073" gradientUnits="userSpaceOnUse">
<stop stop-color="#CFD8DB"/>
<stop offset="1" stop-color="#CFD8DB"/>
</linearGradient>
<linearGradient id="paint28_linear_1877_5361" x1="64.4746" y1="130.412" x2="65.1391" y2="130.412" gradientUnits="userSpaceOnUse">
<stop stop-color="#CFD8DB"/>
<stop offset="1" stop-color="#CFD8DB"/>
</linearGradient>
<linearGradient id="paint29_linear_1877_5361" x1="71.6606" y1="149.005" x2="90.869" y2="149.005" gradientUnits="userSpaceOnUse">
<stop stop-color="#CFD8DB"/>
<stop offset="1" stop-color="#CFD8DB"/>
</linearGradient>
<linearGradient id="paint30_linear_1877_5361" x1="122.756" y1="40.4467" x2="122.885" y2="40.4467" gradientUnits="userSpaceOnUse">
<stop stop-color="#CFD8DB"/>
<stop offset="1" stop-color="#CFD8DB"/>
</linearGradient>
<linearGradient id="paint31_linear_1877_5361" x1="123.404" y1="40.9646" x2="123.533" y2="40.9646" gradientUnits="userSpaceOnUse">
<stop stop-color="#CFD8DB"/>
<stop offset="1" stop-color="#CFD8DB"/>
</linearGradient>
<linearGradient id="paint32_linear_1877_5361" x1="124.052" y1="41.4825" x2="124.181" y2="41.4825" gradientUnits="userSpaceOnUse">
<stop stop-color="#CFD8DB"/>
<stop offset="1" stop-color="#CFD8DB"/>
</linearGradient>
<linearGradient id="paint33_linear_1877_5361" x1="126.253" y1="46.1488" x2="126.383" y2="46.1488" gradientUnits="userSpaceOnUse">
<stop stop-color="#CFD8DB"/>
<stop offset="1" stop-color="#CFD8DB"/>
</linearGradient>
<linearGradient id="paint34_linear_1877_5361" x1="126.903" y1="46.6651" x2="127.032" y2="46.6651" gradientUnits="userSpaceOnUse">
<stop stop-color="#CFD8DB"/>
<stop offset="1" stop-color="#CFD8DB"/>
</linearGradient>
<linearGradient id="paint35_linear_1877_5361" x1="127.551" y1="47.1852" x2="127.68" y2="47.1852" gradientUnits="userSpaceOnUse">
<stop stop-color="#CFD8DB"/>
<stop offset="1" stop-color="#CFD8DB"/>
</linearGradient>
<linearGradient id="paint36_linear_1877_5361" x1="126.255" y1="43.1673" x2="126.513" y2="43.1673" gradientUnits="userSpaceOnUse">
<stop stop-color="#CFD8DB"/>
<stop offset="1" stop-color="#CFD8DB"/>
</linearGradient>
<linearGradient id="paint37_linear_1877_5361" x1="126.255" y1="42.5193" x2="126.513" y2="42.5193" gradientUnits="userSpaceOnUse">
<stop stop-color="#CFD8DB"/>
<stop offset="1" stop-color="#CFD8DB"/>
</linearGradient>
<linearGradient id="paint38_linear_1877_5361" x1="126.255" y1="41.8711" x2="126.513" y2="41.8711" gradientUnits="userSpaceOnUse">
<stop stop-color="#CFD8DB"/>
<stop offset="1" stop-color="#CFD8DB"/>
</linearGradient>
<linearGradient id="paint39_linear_1877_5361" x1="129.057" y1="49.123" x2="136.548" y2="49.123" gradientUnits="userSpaceOnUse">
<stop stop-color="#CFD8DB"/>
<stop offset="1" stop-color="#CFD8DB"/>
</linearGradient>
<linearGradient id="paint40_linear_1877_5361" x1="39.1421" y1="142.411" x2="39.3415" y2="142.411" gradientUnits="userSpaceOnUse">
<stop stop-color="#CFD8DB"/>
<stop offset="1" stop-color="#CFD8DB"/>
</linearGradient>
<linearGradient id="paint41_linear_1877_5361" x1="40.1387" y1="143.207" x2="40.338" y2="143.207" gradientUnits="userSpaceOnUse">
<stop stop-color="#CFD8DB"/>
<stop offset="1" stop-color="#CFD8DB"/>
</linearGradient>
<linearGradient id="paint42_linear_1877_5361" x1="41.1357" y1="144.004" x2="41.3351" y2="144.004" gradientUnits="userSpaceOnUse">
<stop stop-color="#CFD8DB"/>
<stop offset="1" stop-color="#CFD8DB"/>
</linearGradient>
<linearGradient id="paint43_linear_1877_5361" x1="44.5219" y1="151.183" x2="44.7213" y2="151.183" gradientUnits="userSpaceOnUse">
<stop stop-color="#CFD8DB"/>
<stop offset="1" stop-color="#CFD8DB"/>
</linearGradient>
<linearGradient id="paint44_linear_1877_5361" x1="45.522" y1="151.977" x2="45.7213" y2="151.977" gradientUnits="userSpaceOnUse">
<stop stop-color="#CFD8DB"/>
<stop offset="1" stop-color="#CFD8DB"/>
</linearGradient>
<linearGradient id="paint45_linear_1877_5361" x1="46.5186" y1="152.777" x2="46.7179" y2="152.777" gradientUnits="userSpaceOnUse">
<stop stop-color="#CFD8DB"/>
<stop offset="1" stop-color="#CFD8DB"/>
</linearGradient>
<linearGradient id="paint46_linear_1877_5361" x1="44.5249" y1="146.596" x2="44.9227" y2="146.596" gradientUnits="userSpaceOnUse">
<stop stop-color="#CFD8DB"/>
<stop offset="1" stop-color="#CFD8DB"/>
</linearGradient>
<linearGradient id="paint47_linear_1877_5361" x1="44.5249" y1="145.599" x2="44.9227" y2="145.599" gradientUnits="userSpaceOnUse">
<stop stop-color="#CFD8DB"/>
<stop offset="1" stop-color="#CFD8DB"/>
</linearGradient>
<linearGradient id="paint48_linear_1877_5361" x1="44.5249" y1="144.602" x2="44.9227" y2="144.602" gradientUnits="userSpaceOnUse">
<stop stop-color="#CFD8DB"/>
<stop offset="1" stop-color="#CFD8DB"/>
</linearGradient>
<linearGradient id="paint49_linear_1877_5361" x1="48.8364" y1="155.759" x2="60.3614" y2="155.759" gradientUnits="userSpaceOnUse">
<stop stop-color="#CFD8DB"/>
<stop offset="1" stop-color="#CFD8DB"/>
</linearGradient>
</defs>
</svg>
